<svg xmlns="http://www.w3.org/2000/svg" xmlns:xlink="http://www.w3.org/1999/xlink" viewBox="0 0 247.93 247.93"><defs><style>.cls-1{fill:url(#Dégradé_sans_nom_15);}.cls-2{fill:url(#Dégradé_sans_nom_15-2);}.cls-3{fill:#e63946;}.cls-4{fill:#457b9d;}.cls-5{fill:url(#Dégradé_sans_nom_15-3);}.cls-6{fill:url(#Dégradé_sans_nom_15-4);}</style><linearGradient id="Dégradé_sans_nom_15" x1="117.51" y1="130.42" x2="63.8" y2="184.13" gradientUnits="userSpaceOnUse"><stop offset="0"/><stop offset="0.03" stop-color="#070c0f"/><stop offset="0.12" stop-color="#172935"/><stop offset="0.22" stop-color="#254355"/><stop offset="0.33" stop-color="#31576f"/><stop offset="0.44" stop-color="#3a6784"/><stop offset="0.58" stop-color="#407292"/><stop offset="0.74" stop-color="#44799a"/><stop offset="1" stop-color="#457b9d"/></linearGradient><linearGradient id="Dégradé_sans_nom_15-2" x1="131.33" y1="131.33" x2="188.93" y2="188.93" xlink:href="#Dégradé_sans_nom_15"/><linearGradient id="Dégradé_sans_nom_15-3" x1="16.34" y1="119.39" x2="16.34" y2="181.68" xlink:href="#Dégradé_sans_nom_15"/><linearGradient id="Dégradé_sans_nom_15-4" x1="230.93" y1="121.38" x2="230.93" y2="183.68" xlink:href="#Dégradé_sans_nom_15"/></defs><g id="Calque_2" data-name="Calque 2"><g id="Calque_1-2" data-name="Calque 1"><path class="cls-1" d="M129.35,152.74,124,158.13,84.73,197.35c-3.32,3.33-8.43,3.62-11.4.64L49.93,174.6c-3-3-2.68-8.08.64-11.4L89.8,124l5.38-5.38Z"/><path class="cls-2" d="M198,174.6,174.6,198c-3,3-8.08,2.69-11.4-.64L124,158.13l-5.38-5.39,34.16-34.16,5.39,5.38,39.22,39.24C200.68,166.52,201,171.63,198,174.6Z"/><path class="cls-3" d="M198,84.09,158.13,124l-28.78,28.78a7.62,7.62,0,0,1-10.77,0L89.8,124,49.93,84.09a7.61,7.61,0,0,1,0-10.76l23.4-23.4a7.61,7.61,0,0,1,10.76,0L124,89.8l39.87-39.87a7.62,7.62,0,0,1,10.77,0L198,73.33A7.59,7.59,0,0,1,198,84.09Z"/><path class="cls-4" d="M239.83,134.27a10.25,10.25,0,0,1-7.69-3.45,108.39,108.39,0,0,1-216.37-.3,10.32,10.32,0,0,1-15.58.39,124,124,0,0,0,232,53.51,123.08,123.08,0,0,0,15.55-53.85A10.3,10.3,0,0,1,239.83,134.27Z"/><path class="cls-5" d="M32.68,182.43h-18A123.19,123.19,0,0,1,.19,130.91c-.13-2.3-.19-4.61-.19-7,0-1.8,0-3.6.11-5.38H15.72c-.1,1.78-.14,3.58-.14,5.38q0,3.3.19,6.56A107.81,107.81,0,0,0,32.68,182.43Z"/><path class="cls-6" d="M247.93,124q0,3.33-.18,6.61a123.08,123.08,0,0,1-15.55,53.85H213.93a107.86,107.86,0,0,0,18.21-53.6c.14-2.27.21-4.55.21-6.86,0-1.13,0-2.26,0-3.39h15.58C247.91,121.7,247.93,122.83,247.93,124Z"/><path class="cls-3" d="M247.93,124q0,3.33-.18,6.61a10.31,10.31,0,0,1-15.61.25c.14-2.27.21-4.55.21-6.86,0-1.13,0-2.26,0-3.39s-.09-2.31-.16-3.46a108.39,108.39,0,0,0-216.37.3c0,.39,0,.78,0,1.17-.1,1.78-.14,3.58-.14,5.38q0,3.3.19,6.56a10.32,10.32,0,0,1-15.58.39c-.13-2.3-.19-4.61-.19-7,0-1.8,0-3.6.11-5.38,0-.52.05-1,.08-1.56a124,124,0,0,1,247.56.34c.06,1.07.1,2.14.13,3.21S247.93,122.83,247.93,124Z"/></g></g></svg>