<svg xmlns="http://www.w3.org/2000/svg" xmlns:xlink="http://www.w3.org/1999/xlink" viewBox="0 0 252.59 123.69"><defs><style>.cls-1{fill:url(#Dégradé_sans_nom_20);}.cls-2{fill:url(#Dégradé_sans_nom_19);}.cls-3{fill:url(#Dégradé_sans_nom_18);}.cls-4{fill:#457b9d;}.cls-5{fill:#a8dadc;}</style><linearGradient id="Dégradé_sans_nom_20" x1="56.35" y1="97.45" x2="3.69" y2="45.96" gradientUnits="userSpaceOnUse"><stop offset="0" stop-color="#a8dadc"/><stop offset="0.22" stop-color="#a6d7d9"/><stop offset="0.37" stop-color="#9fcfd1"/><stop offset="0.49" stop-color="#94c0c2"/><stop offset="0.59" stop-color="#84acad"/><stop offset="0.69" stop-color="#709192"/><stop offset="0.78" stop-color="#567071"/><stop offset="0.87" stop-color="#384949"/><stop offset="0.95" stop-color="#161d1d"/><stop offset="1"/></linearGradient><linearGradient id="Dégradé_sans_nom_19" x1="97.63" y1="46.78" x2="78.11" y2="119.55" gradientUnits="userSpaceOnUse"><stop offset="0" stop-color="#e63946"/><stop offset="0.21" stop-color="#e33845"/><stop offset="0.35" stop-color="#da3642"/><stop offset="0.47" stop-color="#cb323e"/><stop offset="0.57" stop-color="#b62d37"/><stop offset="0.67" stop-color="#9a262f"/><stop offset="0.77" stop-color="#781e24"/><stop offset="0.86" stop-color="#4f1418"/><stop offset="0.95" stop-color="#21080a"/><stop offset="1"/></linearGradient><linearGradient id="Dégradé_sans_nom_18" x1="32.68" y1="37.9" x2="101.38" y2="16.41" gradientUnits="userSpaceOnUse"><stop offset="0" stop-color="#457b9d"/><stop offset="0.28" stop-color="#44799b"/><stop offset="0.44" stop-color="#407392"/><stop offset="0.57" stop-color="#3a6885"/><stop offset="0.68" stop-color="#325971"/><stop offset="0.78" stop-color="#264557"/><stop offset="0.87" stop-color="#192c38"/><stop offset="0.96" stop-color="#090f14"/><stop offset="1"/></linearGradient></defs><g id="Calque_2" data-name="Calque 2"><g id="Calque_1-2" data-name="Calque 1"><path class="cls-1" d="M108.28,102.69A61.87,61.87,0,0,1,2.44,79.11a62,62,0,0,1,28.48-36.3,61.91,61.91,0,0,0,77.36,59.88Z"/><path class="cls-2" d="M123.69,61.84a62.08,62.08,0,0,1-.87,10.36c0,.26-.09.52-.14.78a56.9,56.9,0,0,1-1.44,6.13,61.59,61.59,0,0,1-13,23.58,62.09,62.09,0,0,1-46.44-6.31A62.09,62.09,0,0,0,90,61.2c.5-1.64,1-3.3,1.31-5,.26-1.14.47-2.28.66-3.43.28-1.73.49-3.47.62-5.24q.18-2.34.18-4.74h0A61.55,61.55,0,0,0,77.35,2a62,62,0,0,1,44.13,43.47,57.43,57.43,0,0,1,1.34,6A62.19,62.19,0,0,1,123.69,61.84Z"/><path class="cls-3" d="M92.76,42.8h0A61.86,61.86,0,0,0,2.44,79.11,61.9,61.9,0,0,1,77.35,2,61.55,61.55,0,0,1,92.76,42.8Z"/><g id="APERTURE"><g id="A"><path class="cls-4" d="M62.93,47,59.55,52.6l9.66,16,1.4,2.32H77.4Zm-4.47,7.37-10,16.48h6.79L61.84,60Z"/></g><g id="P"><path class="cls-4" d="M98.48,52.7l0,.07a7,7,0,0,0-1.81-3.24,6.74,6.74,0,0,0-4.13-2,5.58,5.58,0,0,0-.72,0H79.45v8.57l5.11,5.12h7.27a6.8,6.8,0,0,0,4.85-2c.2-.2.37-.41.54-.61a6.87,6.87,0,0,0,1.47-4.27A6.11,6.11,0,0,0,98.48,52.7Zm-6.17,2.83h0a1.57,1.57,0,0,1-.17.21,2,2,0,0,1-.81.48,2.19,2.19,0,0,1-.63.1H88.39l-3.18-3.18v-.78h5.5a2,2,0,0,1,1.25.43l.18.15a1.8,1.8,0,0,1,.51.92,2.31,2.31,0,0,1,.07.48A1.89,1.89,0,0,1,92.31,55.53ZM79.45,58.67V70.78h5.8V64.47Z"/></g><g id="E"><path class="cls-4" d="M107,65.09V63.45l-5.8-5.8V70.92H120.8v-5.8ZM120.8,47.48H101.21v7.58l7.1,7.09,12.49,0v-5.8H110.7l-3-3H120.8Z"/></g><g id="R"><path class="cls-4" d="M125.13,58.6V70.85h5.8V64.4ZM140,62.09h.37a7.25,7.25,0,0,0,7.1-7,5.86,5.86,0,0,0,0-.72,6.49,6.49,0,0,0-.2-1.6,7,7,0,0,0-1.81-3.25,6.92,6.92,0,0,0-3.48-1.88,6,6,0,0,0-1.33-.13H125.06V56l5.8,5.8v0l9,9,.13.14h9Zm-.38-5.84,0,.07h-5.56l-2.76-2.77h10.16l.1.31a.39.39,0,0,1,0,.21v.2a2.38,2.38,0,0,1-.17.85l-.11.21a.13.13,0,0,1,0,.1l-.1.1-.1.1a2,2,0,0,1-.72.48l-.31.11A1.84,1.84,0,0,1,139.66,56.25Z"/></g><g id="T"><path class="cls-4" d="M159.77,58.77V70.92h5.8V64.58ZM151,47.48v5.8h8.8v2.83l5.8,5.8V53.28h8.84v-5.8Z"/></g><g id="U"><path class="cls-4" d="M196.17,47.58V59.32a5.81,5.81,0,0,1-1.75,4.16,5.47,5.47,0,0,1-1,.82l-.48.31,4.2,4.19.34-.23a11.81,11.81,0,0,0,3.28-4A11.65,11.65,0,0,0,202,59.28V47.55Zm-5.36,17.51-.17.06h-.41a5.91,5.91,0,0,1-5.9-5.9V58.6l-5.84-5.83v6.45a11.69,11.69,0,0,0,11.71,11.7,11.88,11.88,0,0,0,4.6-.92l.65-.27ZM178.46,47.48V50.1l5.83,5.84V47.48Z"/></g><g id="R-2" data-name="R"><path class="cls-4" d="M206.15,58.6V70.85H212V64.4Zm14.91,3.49h.38a7.23,7.23,0,0,0,7.09-7,4.41,4.41,0,0,0,0-.72,6.05,6.05,0,0,0-.21-1.6,6.86,6.86,0,0,0-5.29-5.13,5.94,5.94,0,0,0-1.33-.13H206.08V56l5.8,5.8v0l9,9,.14.14h9Zm-.37-5.84,0,.07h-5.56l-2.76-2.77H222.5c0,.1.06.21.1.31a.51.51,0,0,1,0,.21v.2a2.38,2.38,0,0,1-.17.85l-.1.21a.13.13,0,0,1,0,.1l-.11.1-.1.1a1.94,1.94,0,0,1-.72.48l-.3.11A1.89,1.89,0,0,1,220.69,56.25Z"/></g><g id="E-2" data-name="E"><path class="cls-4" d="M238.84,65.09V63.45l-5.8-5.8V70.92h19.55v-5.8Zm13.75-17.61H233v7.58l7.09,7.09,12.49,0v-5.8h-10.1l-3-3h13.14Z"/></g></g><path class="cls-5" d="M137.08,75.72a4.25,4.25,0,0,0-3.14-1.3h-7.77a1.07,1.07,0,0,0-.78.33,1.05,1.05,0,0,0-.33.78V88.86A1.13,1.13,0,0,0,126.17,90a1.05,1.05,0,0,0,.78-.33,1.07,1.07,0,0,0,.33-.78V83.3h6.66a4.44,4.44,0,0,0,3.14-7.58Zm-1.57,4.71a2.14,2.14,0,0,1-1.57.65h-6.66V76.64h6.66a2.21,2.21,0,0,1,1.57,3.79Z"/><path class="cls-5" d="M156.8,87.83l-7.86-4.53H153a4.44,4.44,0,1,0,0-8.88h-7.78a1.07,1.07,0,0,0-.78.33,1.05,1.05,0,0,0-.33.78V88.86A1.13,1.13,0,0,0,145.24,90a1.11,1.11,0,0,0,1.11-1.11V84.37l9.43,5.44a1.06,1.06,0,0,0,.57.16,1.07,1.07,0,0,0,.79-.33,1.12,1.12,0,0,0,0-1.57A1.51,1.51,0,0,0,156.8,87.83ZM146.35,76.64H153a2.22,2.22,0,1,1,0,4.44h-6.67Z"/><path class="cls-5" d="M176.47,76.7a7.78,7.78,0,0,0-13.27,5.49,7.78,7.78,0,1,0,13.27-5.49Zm-1.57,9.42a5.54,5.54,0,1,1,1.63-3.93A5.34,5.34,0,0,1,174.9,86.12Z"/><path class="cls-5" d="M197.5,74.75a1.1,1.1,0,0,0-1.57,0,1.05,1.05,0,0,0-.33.78V83.3a4.44,4.44,0,1,1-8.88,0,1.11,1.11,0,0,0-2.22,0,6.66,6.66,0,1,0,13.32,0V75.53A1,1,0,0,0,197.5,74.75Z"/><path class="cls-5" d="M215.79,87.74h-10V83.3h7.78a1.07,1.07,0,0,0,.78-.33,1,1,0,0,0,.33-.78,1.13,1.13,0,0,0-1.11-1.11h-7.78V76.64h10a1.13,1.13,0,0,0,1.11-1.11,1.05,1.05,0,0,0-.33-.78,1.07,1.07,0,0,0-.78-.33H204.68a1.07,1.07,0,0,0-.78.33,1.05,1.05,0,0,0-.33.78V88.86A1.13,1.13,0,0,0,204.68,90h11.11a1.12,1.12,0,0,0,0-2.23Z"/><path class="cls-5" d="M232.73,87.74h-4.44a5.55,5.55,0,1,1,0-11.1h4.44a1.13,1.13,0,0,0,1.11-1.11,1.05,1.05,0,0,0-.33-.78,1.07,1.07,0,0,0-.78-.33h-4.44a7.78,7.78,0,0,0,0,15.55h4.44a1.12,1.12,0,0,0,0-2.23Z"/><path class="cls-5" d="M252.26,74.75a1.05,1.05,0,0,0-.78-.33h-11.1a1.07,1.07,0,0,0-.79.33,1.05,1.05,0,0,0-.33.78,1.13,1.13,0,0,0,1.12,1.11h4.44V88.86a1.1,1.1,0,0,0,.32.78,1.12,1.12,0,0,0,1.9-.78V76.64h4.44a1.05,1.05,0,0,0,.78-.33,1.07,1.07,0,0,0,.33-.78A1.05,1.05,0,0,0,252.26,74.75Z"/></g></g></svg>