<svg xmlns="http://www.w3.org/2000/svg" xmlns:xlink="http://www.w3.org/1999/xlink" viewBox="0 0 251.17 251.17"><defs><style>.cls-1{fill:url(#Dégradé_sans_nom_20);}.cls-2{fill:url(#Dégradé_sans_nom_19);}.cls-3{fill:url(#Dégradé_sans_nom_18);}</style><linearGradient id="Dégradé_sans_nom_20" x1="114.44" y1="197.88" x2="7.49" y2="93.33" gradientUnits="userSpaceOnUse"><stop offset="0" stop-color="#a8dadc"/><stop offset="0.22" stop-color="#a6d7d9"/><stop offset="0.37" stop-color="#9fcfd1"/><stop offset="0.49" stop-color="#94c0c2"/><stop offset="0.59" stop-color="#84acad"/><stop offset="0.69" stop-color="#709192"/><stop offset="0.78" stop-color="#567071"/><stop offset="0.87" stop-color="#384949"/><stop offset="0.95" stop-color="#161d1d"/><stop offset="1"/></linearGradient><linearGradient id="Dégradé_sans_nom_19" x1="198.26" y1="94.99" x2="158.62" y2="242.76" gradientUnits="userSpaceOnUse"><stop offset="0" stop-color="#e63946"/><stop offset="0.21" stop-color="#e33845"/><stop offset="0.35" stop-color="#da3642"/><stop offset="0.47" stop-color="#cb323e"/><stop offset="0.57" stop-color="#b62d37"/><stop offset="0.67" stop-color="#9a262f"/><stop offset="0.77" stop-color="#781e24"/><stop offset="0.86" stop-color="#4f1418"/><stop offset="0.95" stop-color="#21080a"/><stop offset="1"/></linearGradient><linearGradient id="Dégradé_sans_nom_18" x1="66.36" y1="76.96" x2="205.87" y2="33.32" gradientUnits="userSpaceOnUse"><stop offset="0" stop-color="#457b9d"/><stop offset="0.28" stop-color="#44799b"/><stop offset="0.44" stop-color="#407392"/><stop offset="0.57" stop-color="#3a6885"/><stop offset="0.68" stop-color="#325971"/><stop offset="0.78" stop-color="#264557"/><stop offset="0.87" stop-color="#192c38"/><stop offset="0.96" stop-color="#090f14"/><stop offset="1"/></linearGradient></defs><g id="Calque_2" data-name="Calque 2"><g id="Calque_1-2" data-name="Calque 1"><path class="cls-1" d="M219.88,208.53A125.63,125.63,0,0,1,5,160.65,125.86,125.86,0,0,1,62.79,86.93a125.71,125.71,0,0,0,157.09,121.6Z"/><path class="cls-2" d="M251.17,125.59a125.53,125.53,0,0,1-1.76,21c-.09.53-.18,1.06-.28,1.58a120.06,120.06,0,0,1-2.93,12.46,125.22,125.22,0,0,1-26.32,47.88,126,126,0,0,1-94.29-12.82,126,126,0,0,0,57.14-71.44c1-3.31,1.93-6.69,2.68-10.11.52-2.31,1-4.62,1.33-7,.57-3.5,1-7,1.27-10.62.24-3.18.36-6.4.36-9.64h0A125,125,0,0,0,157.08,4a125.79,125.79,0,0,1,89.61,88.26,121.94,121.94,0,0,1,2.72,12.28A126.13,126.13,0,0,1,251.17,125.59Z"/><path class="cls-3" d="M188.37,86.92h0A125.62,125.62,0,0,0,5,160.65,125.7,125.7,0,0,1,157.08,4,125,125,0,0,1,188.37,86.92Z"/></g></g></svg>